<?xml version="1.0" encoding="UTF-8"?>
<svg xmlns="http://www.w3.org/2000/svg" xmlns:xlink="http://www.w3.org/1999/xlink" width="78.199997pt" height="78.199997pt" viewBox="0 0 78.199997 78.199997" version="1.1">
<g id="surface1">
<path style=" stroke:none;fill-rule:nonzero;fill:rgb(100%,100%,100%);fill-opacity:1;" d="M 39.101562 0 C 17.503906 0 0 17.503906 0 39.101562 C 0 60.695312 17.503906 78.199219 39.101562 78.199219 C 60.695312 78.199219 78.199219 60.695312 78.199219 39.101562 C 78.199219 17.503906 60.695312 0 39.101562 0 Z M 54.015625 19.910156 L 48.609375 19.914062 C 44.367188 19.914062 43.546875 21.929688 43.546875 24.886719 L 43.546875 31.40625 L 53.660156 31.40625 L 53.65625 41.617188 L 43.546875 41.617188 L 43.546875 67.824219 L 33 67.824219 L 33 41.617188 L 24.183594 41.617188 L 24.183594 31.40625 L 33 31.40625 L 33 23.875 C 33 15.136719 38.339844 10.375 46.136719 10.375 L 54.019531 10.386719 L 54.019531 19.910156 Z M 54.015625 19.910156 "/>
</g>
</svg>
